<?xml version="1.0" encoding="UTF-8" standalone="no"?>
<!-- Created with Inkscape (http://www.inkscape.org/) -->

<svg
   width="900"
   height="900"
   viewBox="0 0 900 899.99999"
   version="1.1"
   id="svg1"
   inkscape:version="1.4.4 (dcaf3e7d9e, 2026-05-05)"
   sodipodi:docname="icon.svg"
   xml:space="preserve"
   inkscape:export-filename="icon.png"
   inkscape:export-xdpi="48"
   inkscape:export-ydpi="48"
   xmlns:inkscape="http://www.inkscape.org/namespaces/inkscape"
   xmlns:sodipodi="http://sodipodi.sourceforge.net/DTD/sodipodi-0.dtd"
   xmlns="http://www.w3.org/2000/svg"
   xmlns:svg="http://www.w3.org/2000/svg"><sodipodi:namedview
     id="namedview1"
     pagecolor="#ffffff"
     bordercolor="#999999"
     borderopacity="1"
     inkscape:showpageshadow="2"
     inkscape:pageopacity="0"
     inkscape:pagecheckerboard="false"
     inkscape:deskcolor="#d1d1d1"
     inkscape:document-units="px"
     showborder="true"
     inkscape:antialias-rendering="true"
     inkscape:zoom="0.40520533"
     inkscape:cx="-339.33413"
     inkscape:cy="688.5398"
     inkscape:window-width="2560"
     inkscape:window-height="1371"
     inkscape:window-x="0"
     inkscape:window-y="0"
     inkscape:window-maximized="1"
     inkscape:current-layer="layer1"
     showguides="true"
     inkscape:lockguides="false"><sodipodi:guide
       position="80,320"
       orientation="1,0"
       id="guide2"
       inkscape:locked="false" /><sodipodi:guide
       position="640,80"
       orientation="0,-1"
       id="guide3"
       inkscape:locked="false" /><sodipodi:guide
       position="640,560"
       orientation="0,-1"
       id="guide4"
       inkscape:locked="false" /><sodipodi:guide
       position="1200,320"
       orientation="1,0"
       id="guide5"
       inkscape:locked="false" /><sodipodi:guide
       position="360,320"
       orientation="1,0"
       id="guide6"
       inkscape:locked="false" /><sodipodi:guide
       position="920,320"
       orientation="1,0"
       id="guide7"
       inkscape:locked="false" /></sodipodi:namedview><defs
     id="defs1"><inkscape:path-effect
       effect="bool_op"
       operand-path="#path2"
       id="path-effect6"
       is_visible="false"
       lpeversion="1"
       operation="diff"
       swap-operands="false"
       filltype-this="from-curve"
       filter=""
       filltype-operand="from-curve" /><filter
       id="selectable_hidder_filter"
       width="1"
       height="1"
       x="0"
       y="0"
       style="color-interpolation-filters:sRGB"><feComposite
         id="boolops_hidder_primitive"
         result="composite1"
         operator="arithmetic"
         in2="SourceGraphic"
         in="BackgroundImage"
         k1="0"
         k2="0"
         k3="0"
         k4="0" /></filter></defs><g
     inkscape:label="Layer 1"
     inkscape:groupmode="layer"
     id="layer1"
     transform="translate(-52.785685,-19.788078)"><rect
       style="opacity:1;fill:#120d23;fill-opacity:1;stroke:none;stroke-width:8.30852;stroke-linecap:round;stroke-linejoin:round"
       id="rect16"
       width="939.99994"
       height="939.99994"
       x="32.785709"
       y="-0.21190028"
       inkscape:label="Background" /><g
       id="layer1-6"
       style="display:inline"
       transform="matrix(41.065548,0,0,41.065548,68.245432,35.177705)"
       inkscape:label="Website Icon"><g
         id="g14"
         style="display:inline;opacity:1;fill:#b53441;fill-opacity:1"
         transform="matrix(1.0477079,0,0,1.0478736,-0.50309683,-0.50666222)"
         inkscape:label="Action Wheel"><path
           d="m 10.847916,14.007413 v 6.091618 c 5.048179,-0.13817 9.112945,-4.202936 9.251115,-9.251115 h -6.091618 c -0.12889,1.686834 -1.472663,3.030607 -3.159497,3.159497 z"
           style="opacity:1;fill:#58264a;fill-opacity:1;stroke-width:3.99942"
           id="path14" /><path
           d="m 10.847916,1.0676351 v 6.0916176 c 1.686834,0.1288894 3.030608,1.4726628 3.159497,3.1594973 h 6.091618 C 19.960861,5.2705708 15.896095,1.2058045 10.847916,1.0676351 Z"
           style="opacity:1;fill:#753d53;fill-opacity:1;stroke-width:3.99942"
           id="path13" /><path
           d="M 10.31875,7.1592527 V 1.0676351 C 5.1823929,1.208218 1.0609348,5.4130164 1.0609171,10.583333 c 1.76e-5,5.170317 4.1214757,9.375115 9.2578329,9.515698 V 14.007413 C 8.544284,13.871828 7.1458532,12.39253 7.1458168,10.583333 7.1458531,8.7741354 8.5442839,7.2948378 10.31875,7.1592527 Z"
           style="opacity:1;fill:#b94853;fill-opacity:1;stroke-width:3.99942"
           id="path12" /></g><g
         id="g6"
         inkscape:label="Note"
         style="fill:#e82336;fill-opacity:1;stroke:#120d23;stroke-width:0.528406;stroke-dasharray:none;stroke-opacity:1"><path
           style="baseline-shift:baseline;display:inline;overflow:visible;opacity:1;fill:#e82336;fill-opacity:1;stroke:#120d23;stroke-width:0.528406;stroke-linejoin:round;stroke-dasharray:none;stroke-opacity:1;enable-background:accumulate;stop-color:#000000;stop-opacity:1"
           d="m 18.265557,1.6632277 c -0.07287,0.00568 -0.145557,0.018228 -0.216479,0.037157 L 7.326931,4.5735709 C 6.8024768,4.7138735 6.4376865,5.1889953 6.4375922,5.7318923 V 14.567124 C 5.96321,14.420092 5.4538668,14.344033 4.9392059,14.343374 c -2.1433727,-9.1e-5 -3.8810475,1.279747 -3.8812655,2.858647 -3.878e-4,1.579215 1.7374645,2.859548 3.8812655,2.859454 2.1438008,9.4e-5 3.881653,-1.280239 3.8812652,-2.859454 h 0.015348 V 6.6519258 L 17.15974,4.4217129 v 7.2722231 c -0.474383,-0.147031 -0.983727,-0.22309 -1.498386,-0.223748 -2.143487,2.35e-4 -3.880847,1.280472 -3.880458,2.859454 2.17e-4,1.578669 1.737401,2.858411 3.880458,2.858647 2.143372,9.3e-5 3.881046,-1.279747 3.881264,-2.858647 h 0.01532 V 2.8587059 c -2.06e-4,-0.613496 -0.46339,-1.1279122 -1.073504,-1.1922472 -0.07298,-0.00773 -0.146025,-0.0089 -0.218902,-0.00322 z"
           id="path1"
           inkscape:label="Note" /></g></g></g></svg>
